<svg width="182" height="40" viewBox="0 0 182 40" fill="none" xmlns="http://www.w3.org/2000/svg">
<g clip-path="url(#clip0_7_24)">
<path d="M0 20C0 31.0457 8.9543 40 20 40C31.0457 40 40 31.0457 40 20L19.9936 16.7133L0 20Z" fill="#1097E2"/>
<path d="M35.1321 33.0777C24.5692 34.3691 16.9195 26.9585 13.899 17.7151L0 20C0 31.0457 8.9543 40 20 40C26.0457 40 31.4648 37.3174 35.1321 33.0777Z" fill="#1097E2"/>
<path d="M20 20L21.7032 9.52703L20 0C14.4772 0 9.47719 2.23859 5.85789 5.85789L10.8346 13.6626L20 20Z" fill="#8CE6F4"/>
<path d="M5.85789 5.85789L10.8346 13.6626L13.2291 15.3183C12.1223 10.5777 12.2035 5.52742 13.6854 1.01843C10.7023 2.01031 8.03102 3.68476 5.85789 5.85789Z" fill="#4ACEF0"/>
<path d="M20 20L5.85789 5.85791C1.95266 9.76314 0 14.8816 0 20H20Z" fill="#24BCF1"/>
<path d="M20 20V0C25.5228 0 30.5228 2.23859 34.1421 5.85789L29.479 13.3666L20 20Z" fill="#4ACEF0"/>
<path d="M20 20L34.1421 5.85791C38.0473 9.76314 40 14.8816 40 20H20Z" fill="#24BCF1"/>
<path d="M20 33.0865C27.2275 33.0865 33.0865 27.2275 33.0865 20C33.0865 12.7725 27.2275 6.91351 20 6.91351C12.7725 6.91351 6.91351 12.7725 6.91351 20C6.91351 27.2275 12.7725 33.0865 20 33.0865Z" fill="#EEECFF"/>
<path d="M20 33.0865C22.051 33.0865 23.9915 32.6142 25.7195 31.7732C17.5597 28.2166 12.6333 18.6696 12.4797 9.28961C9.11351 11.6576 6.91351 15.5716 6.91351 20C6.91351 27.2274 12.7726 33.0865 20 33.0865Z" fill="#EEECFF"/>
<path d="M17.9077 28.7583L15.845 26.7682L17.7328 25.033C17.9711 24.814 17.9866 24.4433 17.7677 24.2051C17.5487 23.9668 17.178 23.9512 16.9398 24.1701L15.428 25.5598V24.543C15.428 24.2194 15.1656 23.9571 14.842 23.9571C14.5184 23.9571 14.2561 24.2194 14.2561 24.543V29.1799C14.2561 29.5035 14.5184 29.7658 14.842 29.7658C15.1656 29.7658 15.428 29.5035 15.428 29.1799V27.9941L17.0941 29.6015C17.2079 29.7112 17.3544 29.7658 17.5009 29.7658C17.6544 29.7658 17.8077 29.7058 17.9227 29.5867C18.1473 29.3539 18.1406 28.983 17.9077 28.7583Z" fill="black"/>
<path d="M25.158 29.7658C24.8344 29.7658 24.5721 29.5035 24.5721 29.1799V24.543C24.5721 24.2194 24.8344 23.9571 25.158 23.9571C25.4816 23.9571 25.744 24.2194 25.744 24.543V29.1799C25.744 29.5036 25.4816 29.7658 25.158 29.7658Z" fill="black"/>
<path d="M21.2847 23.9571H19.9936C19.67 23.9571 19.4077 24.2194 19.4077 24.543V29.1799C19.4077 29.5035 19.67 29.7658 19.9936 29.7658C20.3172 29.7658 20.5795 29.5035 20.5795 29.1799V27.7486C20.8376 27.7472 21.1205 27.746 21.2847 27.746C22.3434 27.746 23.2048 26.8962 23.2048 25.8515C23.2048 24.8069 22.3434 23.9571 21.2847 23.9571ZM21.2847 26.5741C21.1205 26.5741 20.838 26.5753 20.5795 26.5766V25.129H21.2847C21.6902 25.129 22.0329 25.4598 22.0329 25.8515C22.0329 26.2433 21.6903 26.5741 21.2847 26.5741Z" fill="black"/>
<path d="M18.5772 21.4227L14.8613 17.7068C14.0755 16.921 14.0755 15.647 14.8613 14.8612C15.6471 14.0755 16.921 14.0755 17.7069 14.8612L20 17.1544L28.2451 8.90928C29.0309 8.12358 30.3048 8.12358 31.0907 8.90928C31.8765 9.69507 31.8765 10.9691 31.0907 11.7548L21.4227 21.4227C20.6369 22.2085 19.363 22.2085 18.5772 21.4227Z" fill="#1AE1C9"/>
</g>
<path d="M56.2461 29H52.6301L59.2139 10.2987H63.3961L69.989 29H66.373L61.378 14.1339H61.2319L56.2461 29ZM56.3649 21.6674H66.2269V24.3886H56.3649V21.6674ZM79.2347 14.974V17.5308H70.9433V14.974H79.2347ZM73.0161 29V13.65C73.0161 12.7064 73.2109 11.9211 73.6005 11.294C73.9962 10.667 74.5259 10.1983 75.1894 9.88778C75.853 9.57731 76.5896 9.42208 77.3993 9.42208C77.9715 9.42208 78.4798 9.46773 78.9242 9.55905C79.3686 9.65036 79.6973 9.73255 79.9104 9.8056L79.2529 12.3624C79.1129 12.3198 78.9364 12.2772 78.7233 12.2346C78.5102 12.1859 78.2728 12.1615 78.0111 12.1615C77.3962 12.1615 76.9609 12.3107 76.7053 12.609C76.4557 12.9012 76.3309 13.3212 76.3309 13.8691V29H73.0161ZM87.5055 29.2739C86.0993 29.2739 84.8848 28.9817 83.8621 28.3973C82.8454 27.8068 82.0632 26.9728 81.5153 25.8953C80.9674 24.8117 80.6934 23.5363 80.6934 22.0692C80.6934 20.6264 80.9674 19.3602 81.5153 18.2705C82.0692 17.1747 82.8424 16.3224 83.8347 15.7137C84.827 15.0988 85.9927 14.7914 87.332 14.7914C88.1965 14.7914 89.0122 14.9314 89.7793 15.2114C90.5524 15.4854 91.2342 15.9115 91.8247 16.4899C92.4213 17.0682 92.8901 17.8048 93.231 18.6997C93.5719 19.5885 93.7423 20.6477 93.7423 21.8774V22.891H82.2458V20.6629H90.5737C90.5676 20.0298 90.4307 19.4667 90.1628 18.9736C89.8949 18.4744 89.5205 18.0818 89.0396 17.7957C88.5648 17.5095 88.0108 17.3665 87.3777 17.3665C86.702 17.3665 86.1084 17.5308 85.597 17.8596C85.0857 18.1822 84.6869 18.6084 84.4008 19.138C84.1208 19.6615 83.9777 20.2368 83.9716 20.8638V22.8088C83.9716 23.6246 84.1208 24.3247 84.4191 24.9091C84.7174 25.4874 85.1344 25.9318 85.6701 26.2423C86.2058 26.5467 86.8328 26.6989 87.5512 26.6989C88.0321 26.6989 88.4674 26.6319 88.857 26.498C89.2466 26.358 89.5845 26.154 89.8706 25.8862C90.1567 25.6183 90.3728 25.2865 90.5189 24.8908L93.6054 25.2378C93.4106 26.0536 93.0392 26.7658 92.4913 27.3746C91.9495 27.9773 91.2555 28.446 90.4093 28.7808C89.5632 29.1096 88.5952 29.2739 87.5055 29.2739ZM100.575 29.2831C99.6862 29.2831 98.8857 29.1248 98.1734 28.8082C97.4672 28.4856 96.9072 28.0108 96.4932 27.3837C96.0853 26.7567 95.8814 25.9836 95.8814 25.0643C95.8814 24.2729 96.0275 23.6185 96.3197 23.1011C96.6119 22.5836 97.0107 22.1696 97.5159 21.8592C98.0212 21.5487 98.5904 21.3143 99.2235 21.156C99.8627 20.9917 100.523 20.873 101.205 20.7999C102.027 20.7147 102.693 20.6386 103.205 20.5716C103.716 20.4986 104.088 20.389 104.319 20.2429C104.556 20.0907 104.675 19.8563 104.675 19.5398V19.485C104.675 18.7971 104.471 18.2644 104.063 17.887C103.655 17.5095 103.068 17.3208 102.301 17.3208C101.491 17.3208 100.849 17.4974 100.374 17.8504C99.9053 18.2035 99.5888 18.6205 99.4244 19.1015L96.338 18.6631C96.5815 17.8109 96.9833 17.0986 97.5433 16.5264C98.1034 15.9481 98.7883 15.5158 99.5979 15.2297C100.408 14.9375 101.302 14.7914 102.283 14.7914C102.958 14.7914 103.631 14.8705 104.301 15.0288C104.97 15.1871 105.582 15.4489 106.136 15.8141C106.69 16.1733 107.134 16.6634 107.469 17.2843C107.81 17.9052 107.981 18.6814 107.981 19.6128V29H104.803V27.0733H104.693C104.492 27.4629 104.209 27.8281 103.844 28.169C103.485 28.5039 103.031 28.7748 102.483 28.9817C101.942 29.1826 101.306 29.2831 100.575 29.2831ZM101.433 26.8541C102.097 26.8541 102.672 26.7232 103.159 26.4614C103.646 26.1936 104.021 25.8405 104.282 25.4022C104.55 24.9639 104.684 24.486 104.684 23.9685V22.3157C104.581 22.401 104.404 22.4801 104.155 22.5532C103.911 22.6262 103.637 22.6901 103.333 22.7449C103.028 22.7997 102.727 22.8484 102.429 22.891C102.13 22.9336 101.872 22.9702 101.652 23.0006C101.159 23.0676 100.718 23.1772 100.328 23.3293C99.9388 23.4815 99.6314 23.6946 99.4062 23.9685C99.1809 24.2364 99.0683 24.5834 99.0683 25.0095C99.0683 25.6183 99.2905 26.0779 99.7349 26.3884C100.179 26.6989 100.745 26.8541 101.433 26.8541Z" fill="#2587BD"/>
<path d="M121.614 15.4397C121.529 14.6422 121.17 14.0213 120.536 13.5769C119.909 13.1325 119.094 12.9103 118.089 12.9103C117.383 12.9103 116.777 13.0168 116.272 13.2299C115.767 13.443 115.38 13.7321 115.112 14.0974C114.844 14.4627 114.707 14.8797 114.701 15.3484C114.701 15.738 114.79 16.0759 114.966 16.362C115.149 16.6481 115.395 16.8916 115.706 17.0925C116.016 17.2873 116.36 17.4517 116.738 17.5856C117.115 17.7196 117.496 17.8322 117.879 17.9235L119.632 18.3618C120.339 18.5262 121.017 18.7484 121.669 19.0284C122.326 19.3084 122.914 19.6615 123.431 20.0877C123.955 20.5138 124.369 21.0282 124.673 21.6309C124.977 22.2336 125.13 22.9397 125.13 23.7494C125.13 24.8452 124.85 25.8101 124.289 26.6441C123.729 27.472 122.92 28.1203 121.86 28.5891C120.807 29.0517 119.532 29.2831 118.034 29.2831C116.579 29.2831 115.316 29.0578 114.245 28.6073C113.179 28.1569 112.345 27.4994 111.743 26.6349C111.146 25.7705 110.824 24.7173 110.775 23.4754H114.108C114.157 24.1268 114.357 24.6686 114.711 25.1009C115.064 25.5331 115.523 25.8557 116.089 26.0688C116.662 26.2819 117.301 26.3884 118.007 26.3884C118.744 26.3884 119.389 26.2788 119.943 26.0597C120.503 25.8344 120.941 25.5239 121.258 25.1282C121.574 24.7265 121.736 24.2577 121.742 23.722C121.736 23.235 121.593 22.8332 121.313 22.5166C121.033 22.194 120.64 21.9261 120.135 21.7131C119.635 21.4939 119.051 21.2991 118.381 21.1287L116.254 20.5808C114.714 20.1851 113.496 19.5854 112.601 18.7819C111.712 17.9722 111.268 16.8977 111.268 15.5584C111.268 14.4566 111.566 13.4917 112.163 12.6638C112.766 11.8358 113.584 11.1936 114.619 10.737C115.654 10.2743 116.826 10.043 118.135 10.043C119.462 10.043 120.625 10.2743 121.623 10.737C122.628 11.1936 123.416 11.8297 123.988 12.6455C124.56 13.4552 124.856 14.3866 124.874 15.4397H121.614ZM134.122 29.2739C132.722 29.2739 131.519 28.9665 130.515 28.3517C129.516 27.7368 128.746 26.8876 128.205 25.804C127.669 24.7143 127.401 23.4602 127.401 22.0418C127.401 20.6173 127.675 19.3602 128.223 18.2705C128.771 17.1747 129.544 16.3224 130.542 15.7137C131.547 15.0988 132.734 14.7914 134.104 14.7914C135.242 14.7914 136.249 15.0014 137.126 15.4215C138.009 15.8354 138.712 16.4229 139.235 17.1838C139.759 17.9387 140.057 18.8214 140.13 19.832H136.971C136.843 19.1562 136.539 18.5931 136.058 18.1427C135.583 17.6861 134.947 17.4578 134.149 17.4578C133.473 17.4578 132.88 17.6404 132.369 18.0057C131.857 18.3649 131.458 18.8823 131.172 19.558C130.892 20.2338 130.752 21.0434 130.752 21.987C130.752 22.9428 130.892 23.7646 131.172 24.4525C131.452 25.1343 131.845 25.6609 132.35 26.0323C132.862 26.3975 133.461 26.5802 134.149 26.5802C134.636 26.5802 135.071 26.4888 135.455 26.3062C135.845 26.1175 136.17 25.8466 136.432 25.4935C136.694 25.1404 136.873 24.7112 136.971 24.206H140.13C140.051 25.1983 139.759 26.0779 139.254 26.845C138.748 27.6059 138.061 28.2025 137.19 28.6347C136.319 29.0609 135.297 29.2739 134.122 29.2739ZM148.963 29.2739C147.593 29.2739 146.406 28.9726 145.401 28.3699C144.397 27.7672 143.618 26.9241 143.064 25.8405C142.516 24.7569 142.242 23.4907 142.242 22.0418C142.242 20.5929 142.516 19.3237 143.064 18.234C143.618 17.1443 144.397 16.2981 145.401 15.6954C146.406 15.0927 147.593 14.7914 148.963 14.7914C150.332 14.7914 151.52 15.0927 152.524 15.6954C153.529 16.2981 154.305 17.1443 154.853 18.234C155.407 19.3237 155.684 20.5929 155.684 22.0418C155.684 23.4907 155.407 24.7569 154.853 25.8405C154.305 26.9241 153.529 27.7672 152.524 28.3699C151.52 28.9726 150.332 29.2739 148.963 29.2739ZM148.981 26.6258C149.724 26.6258 150.345 26.4219 150.844 26.014C151.343 25.6 151.714 25.0461 151.958 24.3521C152.207 23.6581 152.332 22.8849 152.332 22.0327C152.332 21.1743 152.207 20.3981 151.958 19.7041C151.714 19.0041 151.343 18.447 150.844 18.0331C150.345 17.6191 149.724 17.4121 148.981 17.4121C148.22 17.4121 147.587 17.6191 147.082 18.0331C146.582 18.447 146.208 19.0041 145.959 19.7041C145.715 20.3981 145.593 21.1743 145.593 22.0327C145.593 22.8849 145.715 23.6581 145.959 24.3521C146.208 25.0461 146.582 25.6 147.082 26.014C147.587 26.4219 148.22 26.6258 148.981 26.6258ZM158.489 29V14.974H161.694V17.3117H161.84C162.096 16.502 162.534 15.878 163.155 15.4397C163.782 14.9953 164.498 14.7731 165.301 14.7731C165.484 14.7731 165.688 14.7823 165.913 14.8005C166.144 14.8127 166.336 14.834 166.488 14.8644V17.9052C166.348 17.8565 166.126 17.8139 165.822 17.7774C165.523 17.7348 165.234 17.7135 164.954 17.7135C164.352 17.7135 163.81 17.8444 163.329 18.1061C162.854 18.3618 162.48 18.7179 162.206 19.1745C161.932 19.6311 161.795 20.1577 161.795 20.7543V29H158.489ZM174.316 29.2739C172.91 29.2739 171.696 28.9817 170.673 28.3973C169.656 27.8068 168.874 26.9728 168.326 25.8953C167.778 24.8117 167.504 23.5363 167.504 22.0692C167.504 20.6264 167.778 19.3602 168.326 18.2705C168.88 17.1747 169.653 16.3224 170.645 15.7137C171.638 15.0988 172.804 14.7914 174.143 14.7914C175.007 14.7914 175.823 14.9314 176.59 15.2114C177.363 15.4854 178.045 15.9115 178.636 16.4899C179.232 17.0682 179.701 17.8048 180.042 18.6997C180.383 19.5885 180.553 20.6477 180.553 21.8774V22.891H169.057V20.6629H177.385C177.378 20.0298 177.241 19.4667 176.974 18.9736C176.706 18.4744 176.331 18.0818 175.85 17.7957C175.376 17.5095 174.822 17.3665 174.189 17.3665C173.513 17.3665 172.919 17.5308 172.408 17.8596C171.897 18.1822 171.498 18.6084 171.212 19.138C170.932 19.6615 170.789 20.2368 170.782 20.8638V22.8088C170.782 23.6246 170.932 24.3247 171.23 24.9091C171.528 25.4874 171.945 25.9318 172.481 26.2423C173.017 26.5467 173.644 26.6989 174.362 26.6989C174.843 26.6989 175.278 26.6319 175.668 26.498C176.057 26.358 176.395 26.154 176.681 25.8862C176.968 25.6183 177.184 25.2865 177.33 24.8908L180.416 25.2378C180.221 26.0536 179.85 26.7658 179.302 27.3746C178.76 27.9773 178.066 28.446 177.22 28.7808C176.374 29.1096 175.406 29.2739 174.316 29.2739Z" fill="black"/>
<defs>
<clipPath id="clip0_7_24">
<rect width="40" height="40" fill="white"/>
</clipPath>
</defs>
</svg>
